<svg width="78" height="88" viewBox="0 0 78 88" fill="none" xmlns="http://www.w3.org/2000/svg">
<path d="M14.0241 43.6973C13.8876 43.9406 13.8374 44.2267 13.8822 44.5051C13.927 44.7835 14.0639 45.0364 14.2689 45.2192C21.9228 52.022 23.7513 62.8461 24.0397 64.9463C24.0788 65.2312 24.2142 65.4919 24.4212 65.6807C24.6283 65.8694 24.8931 65.9737 25.1674 65.9744C25.2213 65.9738 25.2751 65.9693 25.3285 65.9609C25.6274 65.9157 25.897 65.7479 26.0782 65.4943C26.2594 65.2407 26.3374 64.922 26.2951 64.6081C25.9407 62.0276 24.5133 54.3116 19.6126 47.661C22.6156 49.2048 25.6024 51.2425 28.362 54.3928C31.3134 57.9743 33.1096 63.3043 33.1274 63.3551C33.1752 63.5054 33.2511 63.6443 33.3505 63.7636C33.4499 63.883 33.5709 63.9804 33.7064 64.0503C33.842 64.1201 33.9894 64.161 34.1401 64.1706C34.2909 64.1802 34.4419 64.1583 34.5845 64.1061C34.7271 64.0539 34.8585 63.9726 34.9709 63.8667C35.0833 63.7608 35.1745 63.6326 35.2393 63.4894C35.3042 63.3463 35.3412 63.191 35.3484 63.0327C35.3556 62.8743 35.3328 62.7161 35.2813 62.5671C35.2056 62.3371 33.4206 57.0324 30.3258 53.1212C30.0906 49.6496 29.2642 42.7165 26.3821 36.3008C29.0222 38.8659 31.3194 41.7942 33.2111 45.0061L33.2321 45.045C35.1317 48.2877 36.6506 51.7598 37.7558 55.3854V55.3973V55.4142C38.2391 56.9919 38.8223 59.5808 39.2057 61.4781C39.2602 61.7464 39.4009 61.987 39.604 62.1597C39.8072 62.3323 40.0607 62.4266 40.3221 62.4267C40.4022 62.4266 40.4821 62.4181 40.5605 62.4014C40.8566 62.3348 41.1155 62.1477 41.2804 61.8811C41.4453 61.6145 41.5027 61.2902 41.4401 60.9792C41.0728 59.1732 40.5299 56.7517 40.0466 55.0743C41.2646 51.4994 42.8907 48.0926 44.8893 44.9283L44.9779 44.7913C46.8959 41.7685 49.1887 39.027 51.7957 36.639C48.622 43.2339 47.6602 50.4443 47.3767 53.7587V53.7756C47.3767 53.784 47.3767 53.7942 47.3767 53.8026C47.1012 59.3051 48.1661 63.1403 48.2112 63.301C48.3066 63.5932 48.5057 63.8355 48.7671 63.9774C49.0285 64.1193 49.332 64.1498 49.6143 64.0626C49.8966 63.9754 50.1359 63.7772 50.2824 63.5093C50.4289 63.2413 50.4712 62.9244 50.4006 62.6246C50.3909 62.5907 49.4629 59.2088 49.6369 54.3843C52.0755 51.781 54.8828 49.589 57.9594 47.8859C56.1422 50.4612 54.7744 53.5253 53.9222 56.9699C52.8541 61.3005 52.9798 64.6876 52.9862 64.8296C52.9991 65.1377 53.1247 65.4286 53.3369 65.6419C53.549 65.8552 53.8314 65.9743 54.1252 65.9744H54.1767C54.4792 65.9604 54.764 65.8209 54.9685 65.5865C55.173 65.3522 55.2805 65.0423 55.2674 64.7248C55.2674 64.5996 54.8469 52.088 63.6543 45.2783C63.8746 45.1081 64.0294 44.8604 64.0905 44.5805C64.1516 44.3005 64.1149 44.0068 63.9871 43.7529C63.8593 43.4989 63.6489 43.3016 63.3941 43.1967C63.1394 43.0918 62.8573 43.0864 62.5991 43.1815C57.7081 44.9824 53.6532 47.409 50.0542 50.7031C50.784 45.7992 52.569 38.2861 56.9058 32.7413C57.077 32.524 57.1696 32.2502 57.1673 31.9683C57.1651 31.6863 57.0681 31.4143 56.8934 31.2C56.7188 30.9858 56.4777 30.8431 56.2126 30.7972C55.9476 30.7512 55.6756 30.8049 55.4446 30.9488C52.519 32.7447 48.382 35.9829 44.464 41.4364C42.584 34.5726 42.3487 30.5041 44.0854 23.2903C44.1465 23.0349 44.1258 22.7655 44.0265 22.5237C43.9272 22.2818 43.7548 22.081 43.5359 21.9523C43.3171 21.8236 43.0639 21.7741 42.8155 21.8114C42.5672 21.8488 42.3375 21.971 42.1619 22.1591C36.1705 28.5848 33.9619 35.4249 33.3013 40.8547C29.625 35.5602 25.7071 32.3287 22.8878 30.4821C22.6603 30.3338 22.3904 30.274 22.1253 30.3134C21.8601 30.3527 21.6165 30.4885 21.4371 30.6972C21.2576 30.9059 21.1538 31.1741 21.1436 31.455C21.1335 31.7359 21.2177 32.0117 21.3815 32.234C25.5927 37.9225 27.1811 45.5185 27.7788 50.4426C23.7658 46.7326 19.4902 44.8201 15.4079 43.1866C15.1569 43.0869 14.8804 43.0835 14.6272 43.1769C14.3741 43.2704 14.1605 43.4547 14.0241 43.6973ZM42.7966 43.9374C41.2827 46.3703 39.9796 48.9408 38.9028 51.6179C37.9292 49.0065 36.7434 46.4877 35.3586 44.0896C35.4665 39.6118 36.6136 33.4363 40.9697 27.2997C40.1465 32.995 40.8473 37.2613 42.7966 43.9374Z" fill="white"/>
<path d="M74.4479 61.752C72.8852 60.5091 70.0805 61.7994 66.554 65.386C66.526 65.4136 66.4997 65.443 66.475 65.4739C63.8427 68.7527 54.1879 75.2614 47.7117 76.7883L47.6746 76.7968C44.19 77.7454 42.8561 77.6693 42.405 77.5713C42.5661 77.184 43.0575 76.4704 43.8871 75.6723C45.9702 73.6668 48.2224 71.1167 47.1317 69.1806C46.2118 67.5504 43.5037 66.7016 30.0373 71.4955C23.7238 73.7429 17.1364 72.1466 10.4588 66.7489C7.28308 64.1463 4.46796 61.0924 2.09446 57.675C1.95879 57.4602 1.76075 57.2969 1.52971 57.2095C1.29866 57.122 1.04693 57.1151 0.811836 57.1897C0.576746 57.2643 0.370825 57.4165 0.224615 57.6236C0.0784058 57.8307 -0.000304521 58.0818 0.000159234 58.3396C-0.00766291 58.5088 0.0250141 58.6774 0.0952085 58.83C2.77822 66.4951 7.46248 73.2128 13.6121 78.2145C19.7618 83.2163 27.1286 86.3002 34.8697 87.1135C42.6108 87.9268 50.4137 86.4366 57.3858 82.8134C64.3579 79.1902 70.2177 73.5803 74.2948 66.6255C74.2969 66.6201 74.2996 66.615 74.3029 66.6103L74.5897 66.103L74.6138 66.059C75.5691 64.2057 75.5063 62.5941 74.4479 61.752ZM72.6162 64.9007L72.3455 65.3741C65.1524 77.6169 52.6913 84.9237 38.9977 84.9237C25.4653 84.9237 13.0267 77.5239 5.93993 65.8527C7.24629 67.146 8.63205 68.3481 10.0883 69.4511C13.1637 71.7644 16.2955 73.359 19.3999 74.1859C23.1469 75.2235 27.1023 75.077 30.7703 73.7648C42.0119 69.764 44.5911 70.1901 45.1083 70.4082C45.0277 70.7278 44.5992 71.734 42.3422 73.9069C40.9503 75.2445 39.4649 77.1739 40.2882 78.7651C41.1114 80.3563 43.399 80.4341 48.2288 79.1219C55.2028 77.4715 65.241 70.6771 68.1795 67.0668C70.9295 64.2834 72.4986 63.6848 73.0028 63.6848C72.9996 63.8793 72.9271 64.2902 72.6162 64.9007Z" fill="white"/>
<path d="M77.9053 28.8185C75.2238 21.1521 70.5404 14.433 64.3909 9.42979C58.2415 4.42663 50.8744 1.34161 43.1327 0.527729C35.3911 -0.28615 27.5875 1.20399 20.6149 4.82764C13.6423 8.45129 7.78235 14.0621 3.70562 21.018L3.69757 21.0315L3.41081 21.5388L3.38664 21.5845C2.43132 23.4446 2.49253 25.051 3.54774 25.8931C5.11042 27.136 7.91517 25.8475 11.4417 22.2609C11.47 22.2331 11.4964 22.2031 11.5206 22.1712C14.161 18.889 23.8158 12.3804 30.2872 10.8551L30.3242 10.845C33.8088 9.89799 35.1428 9.97409 35.5938 10.0722C35.4327 10.4594 34.9414 11.173 34.1133 11.9695C32.0287 13.975 29.7765 16.525 30.8688 18.4629C31.7886 20.093 34.4951 20.9419 47.9615 16.1479C54.275 13.9006 60.8624 15.4969 67.5417 20.8928C70.7176 23.4953 73.5323 26.5499 75.9044 29.9684C76.009 30.1319 76.1502 30.2659 76.3156 30.3588C76.4811 30.4517 76.6657 30.5005 76.8533 30.5011C76.9202 30.5008 76.9871 30.4945 77.053 30.4825C77.3179 30.4334 77.5577 30.2878 77.7301 30.0712C77.9025 29.8546 77.9965 29.581 77.9955 29.2988C78.0036 29.1333 77.9726 28.9684 77.9053 28.8185ZM67.909 18.1906C64.8352 15.879 61.7018 14.2844 58.599 13.4542C54.8532 12.4182 50.8995 12.5658 47.2333 13.8786C35.9918 17.8795 33.4142 17.4534 32.8954 17.2352C32.976 16.9156 33.4045 15.9095 35.6615 13.7366C37.0534 12.3973 38.5371 10.4679 37.7139 8.87832C36.8907 7.28879 34.6031 7.20762 29.7733 8.52152C22.8009 10.1719 12.7611 16.9647 9.82744 20.5749C7.07745 23.3583 5.50833 23.9569 5.00409 23.9569C5.00409 23.7574 5.0782 23.3482 5.39073 22.736L5.65977 22.2642C12.8545 10.0214 25.314 2.71296 39.0076 2.71296C52.54 2.71296 64.977 10.1128 72.0638 21.7857C70.7559 20.4925 69.3679 19.2915 67.909 18.1906Z" fill="white"/>
</svg>
