<svg width="112" height="71" viewBox="0 0 112 71" fill="none" xmlns="http://www.w3.org/2000/svg">
<path d="M-0.000976562 20.1594C-0.000976562 10.6553 -0.000976896 5.90538 3.28068 2.95048C6.56233 -0.00440971 11.8376 3.90496e-08 22.3994 3.90496e-08H89.6005C100.162 3.90496e-08 105.438 2.62874e-07 108.719 2.95489C112.001 5.90097 112.001 10.6508 112.001 20.155V50.4008C112.001 59.905 112.001 64.6548 108.719 67.6097C105.438 70.5646 100.162 70.5646 89.6005 70.5646H22.3994C11.8376 70.5646 6.56233 70.5646 3.28068 67.6097C-0.000976896 64.6637 -0.000976562 59.9138 -0.000976562 50.4096V20.1594Z" stroke="black" stroke-width="2" stroke-linecap="round" stroke-linejoin="round"/>
<path d="M56 44.1028C62.1857 44.1028 67.2002 40.1537 67.2002 35.2822C67.2002 30.4108 62.1857 26.4617 56 26.4617C49.8143 26.4617 44.7998 30.4108 44.7998 35.2822C44.7998 40.1537 49.8143 44.1028 56 44.1028Z" stroke="black" stroke-width="2" stroke-linecap="round" stroke-linejoin="round"/>
<path d="M56 26.4616V4.41016M56 44.1028V66.1542M112.001 22.0513H98.0007C96.5154 22.0513 95.091 22.516 94.0408 23.3431C92.9906 24.1702 92.4006 25.2919 92.4006 26.4616V44.1028C92.4006 45.2725 92.9906 46.3942 94.0408 47.2213C95.091 48.0484 96.5154 48.5131 98.0007 48.5131H112.001M-0.000976562 22.0513H13.9993C15.4845 22.0513 16.9089 22.516 17.9591 23.3431C19.0093 24.1702 19.5994 25.2919 19.5994 26.4616V44.1028C19.5994 45.2725 19.0093 46.3942 17.9591 47.2213C16.9089 48.0484 15.4845 48.5131 13.9993 48.5131H-0.000976562" stroke="black" stroke-width="2" stroke-linecap="round" stroke-linejoin="round"/>
</svg>
