<svg width="221" height="80" viewBox="0 0 221 80" fill="none" xmlns="http://www.w3.org/2000/svg">
<path d="M73.3752 16.5139H81.0541L86.9293 52.4861H81.2603L80.2295 45.3431V45.4458H73.7875L72.7567 52.4861H67.5L73.3752 16.5139ZM79.5596 40.5639L77.0343 22.7833H76.9312L74.4574 40.5639H79.5596Z" fill="white"/>
<path d="M97.5672 53C94.8529 53 92.7743 52.2292 91.3313 50.6875C89.9226 49.1458 89.2183 46.9704 89.2183 44.1611V24.8389C89.2183 22.0296 89.9226 19.8542 91.3313 18.3125C92.7743 16.7708 94.8529 16 97.5672 16C100.281 16 102.343 16.7708 103.752 18.3125C105.195 19.8542 105.916 22.0296 105.916 24.8389V28.6417H100.556V24.4792C100.556 22.2523 99.6115 21.1389 97.7218 21.1389C95.8321 21.1389 94.8873 22.2523 94.8873 24.4792V44.5722C94.8873 46.7648 95.8321 47.8611 97.7218 47.8611C99.6115 47.8611 100.556 46.7648 100.556 44.5722V39.0736H105.916V44.1611C105.916 46.9704 105.195 49.1458 103.752 50.6875C102.343 52.2292 100.281 53 97.5672 53Z" fill="white"/>
<path d="M109.308 16.5139H117.399L121.007 42.2597H121.11L124.717 16.5139H132.809V52.4861H127.449V25.25H127.346L123.223 52.4861H118.481L114.358 25.25H114.255V52.4861H109.308V16.5139Z" fill="white"/>
<path d="M137.039 16.5139H152.5V21.6528H142.708V31.1597H150.49V36.2986H142.708V47.3472H152.5V52.4861H137.039V16.5139Z" fill="white"/>
<path fill-rule="evenodd" clip-rule="evenodd" d="M71.675 14.5139H82.7536L87.2179 41.8475V24.8389C87.2179 21.7055 88.007 18.9852 89.8544 16.9634L89.8625 16.9545L89.8707 16.9458C91.7926 14.8925 94.4662 14 97.5668 14C100.66 14 103.327 14.8891 105.219 16.9543C106.186 17.9899 106.87 19.2103 107.308 20.577V14.5139H119.138L121.058 28.2148L122.978 14.5139H134.808V54.4861H125.448V51.1437L124.942 54.4861H116.761L116.255 51.1437V54.4861H107.308V48.423C106.87 49.7897 106.186 51.0101 105.219 52.0456C103.327 54.1109 100.66 55 97.5668 55C94.4662 55 91.7926 54.1075 89.8707 52.0542L89.8625 52.0455L89.8544 52.0366C89.3599 51.4954 88.9412 50.9042 88.5932 50.2684L89.2821 54.4861H79.5278L78.5119 47.4458H75.5156L74.4849 54.4861H65.1465L71.675 14.5139ZM73.7871 45.4458H80.2292V45.3431L81.2599 52.4861H86.9289L81.0538 16.5139H73.3748L67.4996 52.4861H72.7564L73.7871 45.4458ZM107.308 37.0736V30.6417H98.5559V24.4792C98.5559 23.6011 98.3627 23.3156 98.3224 23.268C98.3091 23.2523 98.2909 23.233 98.2303 23.2092C98.1576 23.1806 98.0018 23.1389 97.7214 23.1389C97.441 23.1389 97.2853 23.1806 97.2126 23.2092C97.152 23.233 97.1338 23.2523 97.1205 23.268C97.0801 23.3156 96.8869 23.6011 96.8869 24.4792V44.5722C96.8869 45.427 97.0775 45.6948 97.1105 45.7332C97.1214 45.7458 97.1391 45.7656 97.2028 45.7902C97.2785 45.8195 97.4378 45.8611 97.7214 45.8611C98.0051 45.8611 98.1644 45.8195 98.2401 45.7902C98.3037 45.7656 98.3215 45.7458 98.3323 45.7332C98.3654 45.6948 98.5559 45.427 98.5559 44.5722V37.0736H107.308ZM114.255 25.25H114.358L118.481 52.4861H123.222L127.345 25.25H127.448V52.4861H132.808V16.5139H124.717L121.109 42.2597H121.006L117.399 16.5139H109.308V52.4861H114.255V25.25ZM135.039 14.5139H154.5V23.6528H144.708V29.1597H152.49V38.2986H144.708V45.3472H154.5V54.4861H135.039V14.5139ZM142.708 47.3472V36.2986H150.49V31.1597H142.708V21.6528H152.5V16.5139H137.039V52.4861H152.5V47.3472H142.708ZM76.9308 22.7833H77.0339L79.5592 40.5639H74.4571L76.9308 22.7833ZM77.0023 36.7838L76.7546 38.5639H77.2551L77.0023 36.7838ZM91.3309 50.6875C92.7739 52.2292 94.8526 53 97.5668 53C100.281 53 102.343 52.2292 103.751 50.6875C105.194 49.1458 105.916 46.9704 105.916 44.1611V39.0736H100.556V44.5722C100.556 46.7648 99.6111 47.8611 97.7214 47.8611C95.8318 47.8611 94.8869 46.7648 94.8869 44.5722V24.4792C94.8869 22.2523 95.8318 21.1389 97.7214 21.1389C99.6111 21.1389 100.556 22.2523 100.556 24.4792V28.6417H105.916V24.8389C105.916 22.0296 105.194 19.8542 103.751 18.3125C102.343 16.7708 100.281 16 97.5668 16C94.8526 16 92.7739 16.7708 91.3309 18.3125C89.9222 19.8542 89.2179 22.0296 89.2179 24.8389V44.1611C89.2179 46.9704 89.9222 49.1458 91.3309 50.6875Z" fill="#3A4F39"/>
<path d="M65.1445 66.0176C65.1445 67.0254 65.4961 67.8047 66.1992 68.3555C66.9023 68.9023 67.7949 69.1758 68.877 69.1758C69.9434 69.1758 70.7617 68.9629 71.332 68.5371C71.9062 68.1074 72.2285 67.5762 72.2988 66.9434L72.3047 66.873H70.8809L70.875 66.9434C70.8477 67.2012 70.6777 67.4473 70.3652 67.6816C70.0527 67.916 69.5566 68.0332 68.877 68.0332C68.1973 68.0332 67.6465 67.8633 67.2246 67.5234C66.8027 67.1836 66.5918 66.7012 66.5918 66.0762V65.584C66.5918 64.9941 66.8027 64.5215 67.2246 64.166C67.6504 63.8066 68.1992 63.627 68.8711 63.627C69.5312 63.627 70.0156 63.7441 70.3242 63.9785C70.6328 64.209 70.8164 64.4531 70.875 64.7109L70.8809 64.7871H72.3047L72.2988 64.7168C72.1855 64.0879 71.8535 63.5586 71.3027 63.1289C70.752 62.6992 69.9434 62.4844 68.877 62.4844C67.7949 62.4844 66.9023 62.7578 66.1992 63.3047C65.4961 63.8516 65.1445 64.6309 65.1445 65.6426V66.0176Z" fill="#3A4F39"/>
<path d="M74.1862 66.0176C74.1862 67.0293 74.5378 67.8086 75.2409 68.3555C75.9441 68.9023 76.8503 69.1758 77.9597 69.1758C79.0652 69.1758 79.9695 68.9023 80.6726 68.3555C81.3796 67.8086 81.7331 67.0293 81.7331 66.0176V65.6426C81.7331 64.6309 81.3796 63.8516 80.6726 63.3047C79.9695 62.7578 79.0652 62.4844 77.9597 62.4844C76.8503 62.4844 75.9441 62.7578 75.2409 63.3047C74.5378 63.8516 74.1862 64.6309 74.1862 65.6426V66.0176ZM75.6277 66.0703V65.5957C75.6277 64.9629 75.8386 64.4766 76.2605 64.1367C76.6862 63.7969 77.2527 63.627 77.9597 63.627C78.6628 63.627 79.2273 63.7969 79.653 64.1367C80.0788 64.4766 80.2917 64.9629 80.2917 65.5957V66.0703C80.2917 66.6992 80.0788 67.1836 79.653 67.5234C79.2273 67.8633 78.6628 68.0332 77.9597 68.0332C77.2527 68.0332 76.6862 67.8633 76.2605 67.5234C75.8386 67.1836 75.6277 66.6992 75.6277 66.0703Z" fill="#3A4F39"/>
<path d="M84.1362 69H85.5541V66.709H87.1069C88.0795 66.709 88.8315 66.5176 89.3627 66.1348C89.8979 65.752 90.1655 65.2422 90.1655 64.6055C90.1655 64.0039 89.8979 63.5293 89.3627 63.1816C88.8315 62.834 88.0795 62.6602 87.1069 62.6602H84.1362V69ZM85.5541 65.6016V63.7676H87.0893C87.7065 63.7676 88.1362 63.8457 88.3784 64.002C88.6245 64.1582 88.7475 64.3613 88.7475 64.6113C88.7475 64.8965 88.6245 65.1328 88.3784 65.3203C88.1362 65.5078 87.7065 65.6016 87.0893 65.6016H85.5541ZM88.9877 69H90.5815L88.478 66.1172L86.9135 66.0762L88.9877 69Z" fill="#3A4F39"/>
<path d="M92.5334 69H93.9513V66.7852H95.5802C96.5685 66.7852 97.3263 66.5938 97.8537 66.2109C98.3849 65.8281 98.6505 65.3105 98.6505 64.6582C98.6505 64.0371 98.3849 63.5488 97.8537 63.1934C97.3263 62.8379 96.5705 62.6602 95.5861 62.6602H92.5334V69ZM93.9513 65.6777V63.7676H95.5334C96.1662 63.7676 96.6076 63.8496 96.8576 64.0137C97.1115 64.1777 97.2384 64.3926 97.2384 64.6582C97.2384 64.959 97.1115 65.2051 96.8576 65.3965C96.6076 65.584 96.1662 65.6777 95.5334 65.6777H93.9513Z" fill="#3A4F39"/>
<path d="M100.374 66.0176C100.374 67.0293 100.725 67.8086 101.429 68.3555C102.132 68.9023 103.038 69.1758 104.147 69.1758C105.253 69.1758 106.157 68.9023 106.86 68.3555C107.567 67.8086 107.921 67.0293 107.921 66.0176V65.6426C107.921 64.6309 107.567 63.8516 106.86 63.3047C106.157 62.7578 105.253 62.4844 104.147 62.4844C103.038 62.4844 102.132 62.7578 101.429 63.3047C100.725 63.8516 100.374 64.6309 100.374 65.6426V66.0176ZM101.815 66.0703V65.5957C101.815 64.9629 102.026 64.4766 102.448 64.1367C102.874 63.7969 103.44 63.627 104.147 63.627C104.85 63.627 105.415 63.7969 105.841 64.1367C106.266 64.4766 106.479 64.9629 106.479 65.5957V66.0703C106.479 66.6992 106.266 67.1836 105.841 67.5234C105.415 67.8633 104.85 68.0332 104.147 68.0332C103.44 68.0332 102.874 67.8633 102.448 67.5234C102.026 67.1836 101.815 66.6992 101.815 66.0703Z" fill="#3A4F39"/>
<path d="M110.324 69H111.742V66.709H113.295C114.267 66.709 115.019 66.5176 115.55 66.1348C116.086 65.752 116.353 65.2422 116.353 64.6055C116.353 64.0039 116.086 63.5293 115.55 63.1816C115.019 62.834 114.267 62.6602 113.295 62.6602H110.324V69ZM111.742 65.6016V63.7676H113.277C113.894 63.7676 114.324 63.8457 114.566 64.002C114.812 64.1582 114.935 64.3613 114.935 64.6113C114.935 64.8965 114.812 65.1328 114.566 65.3203C114.324 65.5078 113.894 65.6016 113.277 65.6016H111.742ZM115.175 69H116.769L114.666 66.1172L113.101 66.0762L115.175 69Z" fill="#3A4F39"/>
<path d="M117.701 69H119.037L121.323 64.3945C121.369 64.293 121.412 64.1953 121.451 64.1016C121.494 64.0078 121.532 63.9121 121.563 63.8145H121.621C121.657 63.9121 121.694 64.0078 121.733 64.1016C121.772 64.1953 121.817 64.293 121.868 64.3945L124.141 69H125.618L122.36 62.6309H120.948L117.701 69ZM119.149 67.6699H124.1L123.596 66.5684L119.653 66.5625L119.149 67.6699Z" fill="#3A4F39"/>
<path d="M125.73 63.7734H128.442V69H129.86V63.7734H132.579V62.6602H125.73V63.7734Z" fill="#3A4F39"/>
<path d="M134.478 69H135.89V62.6602H134.478V69Z" fill="#3A4F39"/>
<path d="M138.305 66.0176C138.305 67.0293 138.657 67.8086 139.36 68.3555C140.063 68.9023 140.969 69.1758 142.079 69.1758C143.184 69.1758 144.088 68.9023 144.791 68.3555C145.499 67.8086 145.852 67.0293 145.852 66.0176V65.6426C145.852 64.6309 145.499 63.8516 144.791 63.3047C144.088 62.7578 143.184 62.4844 142.079 62.4844C140.969 62.4844 140.063 62.7578 139.36 63.3047C138.657 63.8516 138.305 64.6309 138.305 65.6426V66.0176ZM139.747 66.0703V65.5957C139.747 64.9629 139.957 64.4766 140.379 64.1367C140.805 63.7969 141.372 63.627 142.079 63.627C142.782 63.627 143.346 63.7969 143.772 64.1367C144.198 64.4766 144.411 64.9629 144.411 65.5957V66.0703C144.411 66.6992 144.198 67.1836 143.772 67.5234C143.346 67.8633 142.782 68.0332 142.079 68.0332C141.372 68.0332 140.805 67.8633 140.379 67.5234C139.957 67.1836 139.747 66.6992 139.747 66.0703Z" fill="#3A4F39"/>
<path d="M148.255 69H149.55V65.0215C149.55 64.9316 149.544 64.834 149.532 64.7285C149.521 64.623 149.507 64.5254 149.491 64.4355H149.556C149.603 64.5137 149.655 64.5957 149.714 64.6816C149.777 64.7676 149.845 64.8535 149.919 64.9395L153.523 69H155.046V62.6602H153.751V66.6211C153.751 66.7148 153.755 66.8223 153.763 66.9434C153.775 67.0605 153.79 67.166 153.81 67.2598H153.751C153.696 67.1777 153.638 67.0898 153.575 66.9961C153.513 66.9023 153.445 66.8125 153.37 66.7266L149.767 62.6602H148.255V69Z" fill="#3A4F39"/>
</svg>
