<svg width="94" height="94" viewBox="0 0 94 94" fill="none" xmlns="http://www.w3.org/2000/svg">
<path d="M47.3784 52.6008L39.0448 45.6135C38.587 45.2323 38.0498 45.0299 37.4331 45.0064C36.8165 44.9829 36.2513 45.1853 35.7375 45.6135C35.2236 46.0417 34.9651 46.5078 34.962 47.0117C34.9589 47.5157 35.2174 47.9818 35.7375 48.41L44.7391 55.977C45.4928 56.6115 46.3725 56.9287 47.3784 56.9287C48.3843 56.9287 49.2656 56.6115 50.0224 55.977L68.8852 40.1615C69.3399 39.7803 69.5828 39.3272 69.614 38.8024C69.6451 38.2776 69.4022 37.7997 68.8852 37.3689C68.3683 36.9381 67.8124 36.7214 67.2176 36.7187C66.6227 36.7161 66.0684 36.9329 65.5546 37.3689L47.3784 52.6008ZM52.2833 81.6351C51.8598 81.6351 51.4144 81.6024 50.9473 81.5372C50.4802 81.4719 50.0426 81.374 49.6347 81.2434C40.4384 78.3033 33.1308 73.32 27.7121 66.2935C22.2934 59.267 19.584 51.6608 19.584 43.475V26.6999C19.584 25.3682 20.0433 24.1632 20.962 23.0848C21.8807 22.0064 23.0563 21.2231 24.4889 20.7348L49.644 12.9015C50.5534 12.6247 51.4331 12.4863 52.2833 12.4863C53.1335 12.4863 54.0148 12.6247 54.9273 12.9015L80.0777 20.7348C81.5103 21.2231 82.6859 22.0064 83.6046 23.0848C84.5233 24.1632 84.9826 25.3682 84.9826 26.6999V43.475C84.9826 51.6608 82.2733 59.267 76.8545 66.2935C71.4358 73.32 64.1283 78.302 54.932 81.2395C54.5271 81.3701 54.0911 81.468 53.624 81.5332C53.1569 81.5985 52.71 81.6312 52.2833 81.6312M52.2833 77.9417C60.3803 75.7875 67.0759 71.4792 72.37 65.0167C77.6642 58.5542 80.3113 51.3736 80.3113 43.475V26.6255C80.3113 26.1242 80.1463 25.6724 79.8161 25.2703C79.4892 24.8682 79.0251 24.5679 78.4241 24.3695L53.2736 16.5362C52.9747 16.4317 52.6446 16.3795 52.2833 16.3795C51.9221 16.3795 51.592 16.4317 51.293 16.5362L26.1425 24.3695C25.5415 24.5679 25.0775 24.8682 24.7505 25.2703C24.4204 25.6724 24.2553 26.1242 24.2553 26.6255V43.475C24.2553 51.3736 26.9024 58.5542 32.1966 65.0167C37.4908 71.4792 44.1863 75.7875 52.2833 77.9417Z" fill="black"/>
</svg>
