<svg width="54" height="64" viewBox="0 0 54 64" fill="none" xmlns="http://www.w3.org/2000/svg">
<g clip-path="url(#clip0_251_402)">
<path d="M24.4873 36.6874H30.9597V34.5268H30.249C30.249 35.3533 29.6445 35.9626 28.7212 35.9626H27.7247V32.737H28.7991V32.0215H24.4873V32.737H25.5736V35.9626H24.4873V36.6852V36.6874Z" fill="#050038"/>
<path d="M34.0721 36.6898L36.5892 36.6922L38.7262 32.7393H39.7982V32.0215H36.575V32.7393H37.5077L35.9492 35.6154L34.3719 32.7393H35.503V32.0215H30.8276L30.8252 32.7393H31.8972L34.0721 36.6898Z" fill="#050038"/>
<path d="M11.5987 32.0215H6.92326L6.9209 32.7393H7.99058L10.1677 36.6898L12.6849 36.6922L14.8219 32.7393H15.8939V32.0215H12.6707V32.7393H13.6011L12.045 35.6154L10.4676 32.7393H11.5987V32.0215Z" fill="#050038"/>
<path d="M16.5198 34.3594C16.5198 35.7338 17.6273 36.8271 19.847 36.8271C22.0666 36.8271 23.1623 35.7338 23.1623 34.3594C23.1623 33.0041 22.0005 31.9226 19.8329 31.9226C17.6675 31.9226 16.5176 33.0041 16.5176 34.3594H16.5198ZM20.9898 34.3713C20.9757 35.219 20.6238 36.1022 19.8115 36.0879C19.0205 36.0738 18.6734 35.2002 18.6876 34.3312C18.7042 33.4315 19.1339 32.6475 19.8754 32.6593C20.6168 32.6735 21.0063 33.4717 20.9922 34.3713H20.9898Z" fill="#050038"/>
<path d="M40.416 34.3594C40.416 35.7338 41.5235 36.8271 43.7432 36.8271C45.9628 36.8271 47.0584 35.7338 47.0584 34.3594C47.0584 33.0041 45.8967 31.9226 43.7313 31.9226C41.566 31.9226 40.416 33.0041 40.416 34.3594ZM43.7714 32.6593C44.5105 32.6735 44.9025 33.4717 44.886 34.3713C44.8695 35.219 44.52 36.1022 43.7077 36.0879C42.9167 36.0738 42.5695 35.2002 42.5837 34.3312C42.6002 33.4315 43.03 32.6475 43.7714 32.6593Z" fill="#050038"/>
<path d="M48.9336 19.5162L46.2251 22.2247C48.5463 25.8068 49.897 30.0784 49.897 34.6665C49.897 47.3161 39.6418 57.5713 26.9922 57.5713C14.3426 57.5713 4.08736 47.3161 4.08736 34.6665C4.08736 22.0169 14.3426 11.7617 26.9922 11.7617C31.5897 11.7617 35.8708 13.1171 39.46 15.4501L42.1684 12.7416C37.8614 9.75454 32.631 8.00244 26.9922 8.00244C12.267 8.00244 0.328125 19.9389 0.328125 34.6665C0.328125 49.3917 12.2646 61.3306 26.9922 61.3306C41.7174 61.3306 53.6562 49.3941 53.6562 34.6665C53.6562 29.0395 51.9112 23.8186 48.9359 19.5162H48.9336Z" fill="#050038"/>
<path d="M40.4028 9.05249V9.80103C42.0202 10.6771 43.5409 11.7113 44.9506 12.8731L41.1513 16.6724C42.5846 17.7964 43.8786 19.0904 45.005 20.5214L48.7996 16.7268C49.9637 18.1388 50.998 19.6619 51.8741 21.2558H52.6037V9.05249H40.4004H40.4028Z" fill="#050038"/>
</g>
<defs>
<clipPath id="clip0_251_402">
<rect width="53.3281" height="63.9938" fill="white" transform="translate(0.328125 0.00317383)"/>
</clipPath>
</defs>
</svg>
