<svg width="118" height="64" viewBox="0 0 118 64" fill="none" xmlns="http://www.w3.org/2000/svg">
<g clip-path="url(#clip0_251_382)">
<path d="M68.056 34.9478C68.056 32.1827 66.8725 29.7397 62.8694 29.7397C60.8157 29.7397 59.1843 30.3251 58.2997 30.8374L58.948 33.0557C59.7624 32.5448 61.0619 32.124 62.2884 32.124C64.315 32.1212 64.647 33.2676 64.647 34.0046V34.1821C60.2232 34.1749 57.4268 35.7035 57.4268 38.8163C57.4268 40.7183 58.8464 42.5016 61.3281 42.5016C62.8423 42.5016 64.1217 41.8904 64.886 40.9258H64.9604C64.9604 40.9258 65.4643 43.034 68.2507 42.2281C68.109 41.3451 68.056 40.4149 68.056 39.2843V34.9478ZM64.7558 37.8674C64.7558 38.0907 64.7372 38.3226 64.6714 38.5215C64.4166 39.3731 63.5378 40.0857 62.4444 40.0857C61.5214 40.0857 60.7971 39.5633 60.7971 38.4684C60.7971 36.794 62.6461 36.3332 64.7558 36.3447" fill="#050038"/>
<path d="M0.328125 25.9783C0.328125 25.9783 3.21765 37.7997 3.67707 39.7147C4.21805 41.953 5.18696 42.7803 7.98349 42.2293L9.78962 34.8988C10.2462 33.0826 10.5567 31.7803 10.8516 29.9297H10.9016C11.1063 31.7988 11.4011 33.0826 11.7747 34.9045C11.7747 34.9045 12.5117 38.2349 12.8939 39.9795C13.2659 41.7241 14.3135 42.8247 17.0571 42.2293L21.3564 25.9783H17.8857L16.4102 33.0082C16.0196 35.0448 15.6646 36.6491 15.3884 38.5154H15.3383C15.0893 36.6691 14.773 35.1307 14.3666 33.1356L12.838 25.9783H9.21717L7.5856 32.9524C7.12045 35.082 6.6854 36.7894 6.41203 38.5969H6.36482C6.08288 36.901 5.70077 34.7413 5.2957 32.692C5.2957 32.692 4.3268 27.6986 3.98478 25.9783" fill="#050038"/>
<path d="M31.0277 34.9478C31.0277 32.1827 29.8412 29.7397 25.8382 29.7397C23.7902 29.7397 22.1558 30.3251 21.2713 30.8374L21.9196 33.0557C22.7311 32.5448 24.0292 32.124 25.26 32.124C27.2865 32.1212 27.6185 33.2676 27.6185 34.0046V34.1821C23.1948 34.1749 20.3955 35.7035 20.3955 38.8163C20.3955 40.7183 21.8209 42.5016 24.2911 42.5016C25.8195 42.5016 27.0876 41.8904 27.8518 40.9258H27.9292C27.9292 40.9258 28.4358 43.034 31.2194 42.2281C31.0764 41.3451 31.0277 40.4149 31.0277 39.2843V34.9478ZM27.7245 37.8674C27.7245 38.0907 27.706 38.3226 27.6429 38.5215C27.3852 39.3731 26.5066 40.0857 25.4104 40.0857C24.4929 40.0857 23.7659 39.5633 23.7659 38.4684C23.7659 36.794 25.6149 36.3332 27.7245 36.3447" fill="#050038"/>
<path d="M32.8291 25.9783V42.2236H36.1323V38.7788V25.9783H32.8291Z" fill="#050038"/>
<path d="M78.1934 25.9783V37.9644C78.1934 39.6189 78.5039 40.7724 79.1721 41.4793C79.759 42.099 80.7192 42.5026 81.8628 42.5026C82.8446 42.5026 83.8048 42.3137 84.2586 42.1492L84.2186 39.5687C83.8794 39.6474 83.4915 39.7147 82.959 39.7147C81.8313 39.7147 81.4592 39.0005 81.4592 37.515V32.9266H84.3359V29.8224H81.4592V25.9783" fill="#050038"/>
<path d="M69.6562 30.0215V42.228H73.071V35.9766C73.071 35.6403 73.0924 35.3497 73.1454 35.0806C73.4001 33.7625 74.4006 32.9282 75.8417 32.9282C76.244 32.9282 76.5173 32.9726 76.8207 33.0198V29.8196C76.5659 29.7739 76.3928 29.7495 76.0793 29.7495C74.8012 29.7495 73.3529 30.5609 72.7418 32.3285H72.6574V30.0215" fill="#050038"/>
<path d="M38.0508 30.0215V42.228H41.3782V35.0635C41.3782 34.7272 41.4154 34.3837 41.5342 34.0731C41.8047 33.3475 42.4759 32.5074 43.5536 32.5074C44.8931 32.5074 45.5258 33.638 45.5258 35.2695V42.228H48.8447V34.9777C48.8447 34.6613 48.8891 34.2734 48.982 33.9929C49.2483 33.17 49.9753 32.5074 50.9801 32.5074C52.3339 32.5074 52.9895 33.6137 52.9895 35.5373V42.228H56.3053V35.0306C56.3053 31.2494 54.3819 29.7495 52.1979 29.7495C51.2377 29.7495 50.4734 29.9856 49.7864 30.4093C49.2054 30.7656 48.6959 31.268 48.2393 31.9249H48.1893C47.664 30.6111 46.4303 29.7495 44.8187 29.7495C42.7522 29.7495 41.8133 30.7928 41.2609 31.6745H41.2108V30.0215" fill="#050038"/>
<path d="M102.208 29.4739C102.86 29.4739 103.41 29.1333 103.482 28.6953L104.128 21.3676C104.128 20.6421 103.274 20.0481 102.208 20.0481C101.136 20.0481 100.287 20.6421 100.287 21.3676L100.94 28.6953C101.008 29.1333 101.555 29.4739 102.208 29.4739Z" fill="#050038"/>
<path d="M98.2382 31.7669C98.5616 31.1944 98.543 30.559 98.1939 30.2755L92.1542 26.0523C91.5259 25.6859 90.5857 26.1224 90.0476 27.0469C89.5108 27.97 89.6196 29.0061 90.2351 29.3653L96.9214 32.4653C97.3494 32.6256 97.909 32.3279 98.2382 31.7612" fill="#050038"/>
<path d="M106.175 31.761C106.517 32.3278 107.077 32.6255 107.494 32.4738L114.18 29.3653C114.801 28.9989 114.894 27.9727 114.369 27.0496C113.832 26.125 112.886 25.6914 112.259 26.0506L106.218 30.2698C105.883 30.5575 105.859 31.1957 106.183 31.7668" fill="#050038"/>
<path d="M102.208 38.6267C102.86 38.6267 103.41 38.9674 103.482 39.4053L104.128 46.7329C104.128 47.4586 103.274 48.0467 102.208 48.0467C101.136 48.0467 100.287 47.4586 100.287 46.7329L100.94 39.4053C101.008 38.9674 101.555 38.6267 102.208 38.6267Z" fill="#050038"/>
<path d="M106.175 36.341C106.517 35.7728 107.077 35.4693 107.494 35.634L114.18 38.7368C114.801 39.0959 114.894 40.1307 114.369 41.0552C113.832 41.9726 112.886 42.4091 112.259 42.05L106.218 37.8251C105.883 37.5403 105.859 36.9048 106.183 36.341" fill="#050038"/>
<path d="M98.2382 36.3349C98.5616 36.9059 98.543 37.5399 98.1939 37.8262L92.1542 42.0438C91.5259 42.4102 90.5857 41.9722 90.0476 41.0549C89.5108 40.1318 89.6196 39.0956 90.2351 38.7364L96.9214 35.6336C97.3494 35.4704 97.909 35.7709 98.2382 36.3349Z" fill="#050038"/>
<path d="M116.136 41.4063H116.219C116.332 41.4063 116.378 41.442 116.391 41.5323C116.415 41.6324 116.428 41.6998 116.452 41.7283H116.667C116.648 41.7068 116.624 41.6524 116.611 41.5266C116.587 41.4178 116.531 41.3562 116.452 41.3347V41.3147C116.561 41.2904 116.624 41.2174 116.624 41.1273C116.624 41.0457 116.587 40.987 116.55 40.9498C116.478 40.9154 116.409 40.8882 116.258 40.8882C116.123 40.8882 116.024 40.8997 115.946 40.9183V41.7283H116.136V41.4063ZM116.142 41.0371L116.239 41.0242C116.354 41.0242 116.415 41.0771 116.415 41.1515C116.415 41.2346 116.332 41.2732 116.226 41.2732H116.142V41.0371ZM116.263 40.4875C115.794 40.4875 115.422 40.8539 115.422 41.3032C115.422 41.7642 115.794 42.1305 116.263 42.1305C116.739 42.1305 117.099 41.7642 117.099 41.3032C117.099 40.8539 116.739 40.4875 116.263 40.4875ZM116.263 40.6521C116.624 40.6521 116.892 40.9441 116.892 41.3032C116.892 41.6654 116.624 41.9659 116.263 41.9602C115.903 41.9602 115.629 41.6654 115.629 41.3032C115.629 40.9441 115.903 40.6521 116.258 40.6521" fill="#050038"/>
</g>
<defs>
<clipPath id="clip0_251_382">
<rect width="117.328" height="63.9972" fill="white" transform="translate(0.328125 0.00146484)"/>
</clipPath>
</defs>
</svg>
